<mxfile host="app.diagrams.net" modified="2020-09-28T12:32:30.958Z" agent="5.0 (Macintosh; Intel Mac OS X 10_15_7) AppleWebKit/537.36 (KHTML, like Gecko) Chrome/85.0.4183.121 Safari/537.36" etag="ePKQFrFsyopfqmmD583y" version="13.7.5" type="github">
  <diagram id="MIp4M64EkGTqjaolRmWG" name="Page-1">
    <mxGraphModel dx="891" dy="591" grid="1" gridSize="10" guides="1" tooltips="1" connect="1" arrows="1" fold="1" page="1" pageScale="1" pageWidth="827" pageHeight="1169" math="0" shadow="0">
      <root>
        <mxCell id="0" />
        <mxCell id="1" parent="0" />
        <mxCell id="hsk3SF1_8NSo1FBFKVAz-4" style="edgeStyle=orthogonalEdgeStyle;rounded=0;orthogonalLoop=1;jettySize=auto;html=1;exitX=0.5;exitY=1;exitDx=0;exitDy=0;entryX=0.5;entryY=0;entryDx=0;entryDy=0;" edge="1" parent="1" source="hsk3SF1_8NSo1FBFKVAz-1" target="hsk3SF1_8NSo1FBFKVAz-3">
          <mxGeometry relative="1" as="geometry" />
        </mxCell>
        <mxCell id="hsk3SF1_8NSo1FBFKVAz-1" value="" style="whiteSpace=wrap;html=1;aspect=fixed;" vertex="1" parent="1">
          <mxGeometry x="230" y="90" width="110" height="110" as="geometry" />
        </mxCell>
        <mxCell id="hsk3SF1_8NSo1FBFKVAz-6" style="edgeStyle=orthogonalEdgeStyle;rounded=0;orthogonalLoop=1;jettySize=auto;html=1;exitX=0.5;exitY=1;exitDx=0;exitDy=0;entryX=0.5;entryY=0;entryDx=0;entryDy=0;" edge="1" parent="1" source="hsk3SF1_8NSo1FBFKVAz-3" target="hsk3SF1_8NSo1FBFKVAz-5">
          <mxGeometry relative="1" as="geometry" />
        </mxCell>
        <mxCell id="hsk3SF1_8NSo1FBFKVAz-3" value="" style="rounded=1;whiteSpace=wrap;html=1;" vertex="1" parent="1">
          <mxGeometry x="225" y="250" width="120" height="60" as="geometry" />
        </mxCell>
        <mxCell id="hsk3SF1_8NSo1FBFKVAz-5" value="" style="shape=parallelogram;perimeter=parallelogramPerimeter;whiteSpace=wrap;html=1;fixedSize=1;" vertex="1" parent="1">
          <mxGeometry x="220" y="380" width="120" height="60" as="geometry" />
        </mxCell>
      </root>
    </mxGraphModel>
  </diagram>
</mxfile>
